<?xml version="1.0" encoding="UTF-8"?>
<svg id="Line" xmlns="http://www.w3.org/2000/svg" viewBox="0 0 500 500">
  <path d="m404.03,270.71H92.81l47.9-107.81c4.5-10,14.4-16.4,25.3-16.4h176.71c7.8,0,15.3,3.4,20.6,9.2l21.6,24.3,35.1,39.6,4.6,5.2c15.9,17.8,3.2,45.9-20.6,45.9Zm-147.4-193.24h-53.39c-15.25,0-27.61,12.36-27.61,27.61v41.41h138.03l-33.37-55.61c-4.99-8.32-13.98-13.4-23.67-13.4Z" fill="#fdefd2" stroke-width="0"/>
  <path d="m327.47,325.93H51.41v-53.21c0-1.1.9-2,2-2h274.06v55.21Zm57.46-145.92h-114.91c-5.5,0-10.5,2.2-14.1,5.9-3.7,3.6-5.9,8.6-5.9,14.1,0,11,9,20,20,20h150.01v-.4l-35.1-39.6Z" fill="#ffbd32" stroke-width="0"/>
  <path d="m488.44,255.31l-39.4,114.71-6.8,20-4.8,13.9c-3.9,11.1-14.4,18.6-26.1,18.6H37.6c-15.2,0-27.6-12.3-27.6-27.6v-46.9c0-15.8,13.2-28.3,29-27.5l103.71,5.1c3.5.2,7-.3,10.4-1.4l300.22-104.01c21.8-7.5,42.6,13.3,35.1,35.1Z" fill="#0faabe" stroke-width="0"/>
  <polygon points="449.04 370.02 442.23 390.02 10 390.02 10 370.02 449.04 370.02" fill="#ffbd32" stroke-width="0"/>
</svg>