<?xml version="1.0" encoding="UTF-8"?>
<svg id="Line" xmlns="http://www.w3.org/2000/svg" viewBox="0 0 500 500">
  <path d="m462.9,384.5H37.1c-11.05,0-20-8.95-20-20v-54.53h465.79v54.53c0,11.05-8.95,20-20,20Zm-18.63-306.26H55.74c-11.05,0-20,8.95-20,20v147.69h428.53V98.24c0-11.05-8.95-20-20-20Z" fill="#0faabe" stroke-width="0"/>
  <rect x="10" y="243.6" width="480" height="94.32" rx="10" ry="10" fill="#fdefd2" stroke-width="0"/>
  <path d="m82.02,421.76h-17.26c-5.52,0-10-4.48-10-10v-27.26h37.26v27.26c0,5.52-4.48,10-10,10Zm363.23-10v-27.26h-37.26v27.26c0,5.52,4.48,10,10,10h17.26c5.52,0,10-4.48,10-10Z" fill="#f09f27" stroke-width="0"/>
  <path d="m222.05,162.77v73.16c0,5.52-4.48,10-10,10h-110.42c-5.52,0-10-4.48-10-10v-73.16c0-5.52,4.48-10,10-10h110.42c5.52,0,10,4.48,10,10Zm176.32-10h-110.42c-5.52,0-10,4.48-10,10v73.16c0,5.52,4.48,10,10,10h110.42c5.52,0,10-4.48,10-10v-73.16c0-5.52-4.48-10-10-10Z" fill="#fdefd2" stroke-width="0"/>
</svg>