<?xml version="1.0" encoding="UTF-8"?>
<svg id="Line" xmlns="http://www.w3.org/2000/svg" viewBox="0 0 500 500">
  <path d="m414.54,211.05l45.11,196.56c1.54,6.71-.48,13.75-5.35,18.62l-30.08,30.08c-9.4,9.4-25.17,7.19-31.63-4.43l-86.26-155.28,108.21-85.54Zm-125.16-125.16L92.24,40.2c-6.72-1.56-13.78.46-18.66,5.34l-30.06,30.06c-9.4,9.4-7.19,25.17,4.43,31.63l155.28,86.26,86.15-107.6ZM112.88,434.87l40.99,40.99c7.74,7.74,20.26,7.82,28.1.18l9.52-9.28c4.69-4.57,6.84-11.15,5.77-17.61l-10.58-63.49-73.8,49.2Zm1.28-121.73l-63.49-10.58c-6.46-1.08-13.04,1.08-17.61,5.77l-9.28,9.52c-7.64,7.84-7.56,20.36.18,28.1l40.99,40.99,49.2-73.8Z" fill="#08bf89" stroke-width="0"/>
  <path d="m467.98,170.3c-7.75,11.15-17.69,20.62-28.5,28.84l-189.61,144.1-36.01,27.44-85.22,64.8c-18.29,13.9-44.03,12.16-60.27-4.08h0c-16.24-16.24-17.99-41.99-4.08-60.27l64.8-85.22,27.44-36.01L299.49,61.74c10.36-13.63,22.79-25.77,37.54-34.46,48.01-28.28,101.82-18.53,127.93,7.58,27.8,27.8,37.33,86.06,3.02,135.43Z" fill="#0faabe" stroke-width="0"/>
  <path d="m405.48,51.89h0c30.95,0,56.08,25.13,56.08,56.08h0c0,15.92-12.92,28.84-28.84,28.84h-54.48c-15.92,0-28.84-12.92-28.84-28.84h0c0-30.95,25.13-56.08,56.08-56.08Z" transform="translate(185.48 -259.08) rotate(45)" fill="#fdefd2" stroke-width="0"/>
  <polygon points="249.87 343.23 213.86 370.67 129.07 285.89 156.52 249.88 249.87 343.23" fill="#fdefd2" stroke-width="0"/>
</svg>