<?xml version="1.0" encoding="UTF-8"?>
<svg id="Line" xmlns="http://www.w3.org/2000/svg" viewBox="0 0 500 500">
  <path d="m282.05,84.67c-5.89,0-10.67-4.78-10.67-10.67v-32c0-5.89,4.78-10.67,10.67-10.67s10.67,4.78,10.67,10.67v32c0,5.89-4.78,10.67-10.67,10.67Zm-53.33-10.67v-32c0-5.89-4.78-10.67-10.67-10.67s-10.67,4.78-10.67,10.67v32c0,5.89,4.78,10.67,10.67,10.67s10.67-4.78,10.67-10.67Z" fill="#fdefd2" stroke-width="0"/>
  <path d="m336.05,490h-22.67c-5.52,0-10-4.48-10-10v-32.67h42.67v32.67c0,5.52-4.48,10-10,10Zm-139.33-10v-32.67h-42.67v32.67c0,5.52,4.48,10,10,10h22.67c5.52,0,10-4.48,10-10Z" fill="#f09f27" stroke-width="0"/>
  <path d="m399.39,95.33v341.33c0,11.73-9.6,21.33-21.33,21.33H121.95c-11.84,0-21.33-9.6-21.33-21.33V95.33c0-11.73,9.49-21.33,21.33-21.33h256.11c11.73,0,21.33,9.6,21.33,21.33Z" fill="#d55b3b" stroke-width="0"/>
  <path d="m186.27,75.39v382.61h-21.33V75.39c0-.43,0-.96.11-1.39h21.12c.11.43.11.96.11,1.39Zm149.23-1.39h-21.12c-.11.43-.11.96-.11,1.39v382.61h21.33V75.39c0-.43,0-.96-.11-1.39Z" fill="#fdefd2" stroke-width="0"/>
  <rect x="164.72" y="10" width="170.67" height="32" rx="10" ry="10" fill="#d55b3b" stroke-width="0"/>
</svg>