<svg xmlns="http://www.w3.org/2000/svg" xmlns:xlink="http://www.w3.org/1999/xlink" width="204" zoomAndPan="magnify" viewBox="0 0 153 38.999999" height="52" preserveAspectRatio="xMidYMid meet" version="1.0"><defs><g/><clipPath id="4ee2edc1c4"><path d="M 21.558594 0 L 126.558594 0 L 126.558594 14 L 21.558594 14 Z M 21.558594 0 " clip-rule="nonzero"/></clipPath></defs><g clip-path="url(#4ee2edc1c4)"><path fill="#000000" d="M 126.40625 9.570312 C 122.707031 10.617188 119.480469 8.558594 116.25 7.011719 C 115.457031 6.554688 114.664062 6.097656 113.828125 5.667969 C 112.527344 5.046875 111.15625 4.691406 109.71875 4.597656 C 108.28125 4.503906 106.875 4.683594 105.503906 5.128906 C 101.242188 6.476562 97.246094 9.246094 92.953125 10.671875 C 90.914062 11.132812 88.847656 11.308594 86.757812 11.203125 C 84.667969 11.097656 82.632812 10.714844 80.648438 10.054688 C 79.800781 9.621094 78.980469 9.097656 78.1875 8.519531 C 75.171875 6.554688 72.390625 4.253906 69.335938 2.359375 C 68.089844 1.582031 66.746094 1.0625 65.300781 0.800781 C 63.457031 0.410156 61.601562 0.3125 59.726562 0.511719 C 57.855469 0.714844 56.058594 1.199219 54.339844 1.96875 C 50.976562 3.421875 48.03125 5.789062 44.921875 7.617188 C 41.210938 9.949219 37.242188 11.707031 33.019531 12.890625 C 29.246094 13.339844 25.546875 12.992188 21.921875 11.84375 C 21.695312 11.761719 21.601562 12.125 21.828125 12.21875 C 28.890625 14.910156 36.828125 13.898438 43.617188 10.875 C 46.484375 9.550781 49.171875 7.9375 51.6875 6.03125 C 53.363281 5.046875 55.113281 4.234375 56.949219 3.597656 C 57.019531 3.578125 57.070312 3.53125 57.097656 3.460938 L 57.726562 3.273438 L 57.863281 3.273438 C 57.863281 3.273438 57.929688 3.273438 57.96875 3.273438 C 59.078125 2.949219 60.210938 2.722656 61.359375 2.601562 C 65.058594 2.238281 67.898438 3.945312 70.773438 5.9375 C 73.648438 8.046875 76.675781 9.894531 79.867188 11.480469 C 77.949219 11.363281 76.042969 11.140625 74.152344 10.804688 C 74.113281 10.820312 74.09375 10.851562 74.09375 10.894531 C 74.09375 10.9375 74.113281 10.964844 74.152344 10.980469 C 76.703125 11.890625 79.328125 12.480469 82.023438 12.746094 C 84.71875 13.015625 87.410156 12.949219 90.089844 12.554688 C 92.679688 12.421875 95.164062 11.832031 97.542969 10.792969 C 99.707031 10.027344 101.859375 9.164062 103.957031 8.25 L 105.464844 7.886719 C 107.09375 7.570312 108.738281 7.386719 110.398438 7.335938 L 112.472656 7.511719 L 113.640625 7.820312 C 115.234375 8.25 116.796875 8.777344 118.324219 9.40625 C 119.523438 10.023438 120.789062 10.414062 122.128906 10.578125 C 123.65625 10.921875 125.152344 10.804688 126.609375 10.226562 C 126.972656 10.066406 126.824219 9.449219 126.40625 9.570312 Z M 126.40625 9.570312 " fill-opacity="1" fill-rule="nonzero"/></g><path fill="#000000" d="M 65.21875 8.304688 C 60.769531 6.21875 56.785156 9.136719 53.113281 11.503906 C 48.339844 14.585938 42.234375 16.992188 36.492188 16.457031 C 36.34375 16.457031 36.355469 16.65625 36.492188 16.683594 C 38.832031 16.867188 41.152344 16.734375 43.457031 16.277344 C 45.757812 15.820312 47.957031 15.058594 50.046875 13.992188 C 54.996094 11.789062 59.195312 6.984375 65.074219 8.613281 C 65.273438 8.75 65.433594 8.398438 65.21875 8.304688 Z M 65.21875 8.304688 " fill-opacity="1" fill-rule="nonzero"/><path fill="#000000" d="M 69.644531 10.105469 C 69.054688 10.027344 68.5 9.84375 67.976562 9.554688 C 67.898438 9.554688 67.816406 9.636719 67.898438 9.675781 C 68.425781 10.019531 69.003906 10.214844 69.632812 10.269531 C 69.6875 10.273438 69.714844 10.246094 69.71875 10.195312 C 69.722656 10.140625 69.699219 10.109375 69.644531 10.105469 Z M 69.644531 10.105469 " fill-opacity="1" fill-rule="nonzero"/><path fill="#000000" d="M 117.636719 12.339844 C 114.582031 11.734375 111.421875 9.648438 108.222656 10.160156 C 104.347656 10.792969 100.835938 12.742188 96.976562 13.507812 C 96.867188 13.507812 96.976562 13.683594 96.976562 13.671875 C 100.378906 13.171875 103.59375 11.84375 106.984375 11.25 C 110.667969 10.589844 113.882812 12.6875 117.515625 12.878906 C 117.589844 12.894531 117.660156 12.882812 117.722656 12.839844 C 117.789062 12.800781 117.828125 12.742188 117.84375 12.667969 C 117.859375 12.59375 117.847656 12.527344 117.808594 12.460938 C 117.769531 12.398438 117.710938 12.355469 117.636719 12.339844 Z M 117.636719 12.339844 " fill-opacity="1" fill-rule="nonzero"/><path fill="#000000" d="M 75.199219 18.191406 C 71.164062 17.222656 66.929688 14.71875 62.664062 15.5 C 58.777344 16.265625 55.84375 19.347656 51.648438 18.929688 C 51.5 18.929688 51.472656 19.160156 51.648438 19.1875 C 54.863281 19.683594 57.539062 18.351562 60.390625 17.0625 C 65.488281 14.761719 70.117188 17.558594 75.1875 18.285156 C 75.253906 18.351562 75.292969 18.21875 75.199219 18.191406 Z M 75.199219 18.191406 " fill-opacity="1" fill-rule="nonzero"/><path fill="#000000" d="M 112.699219 16.386719 C 108.894531 14.101562 104.359375 16.144531 100.59375 17.597656 C 94.945312 19.792969 88.746094 19.5625 82.8125 18.945312 C 82.664062 18.945312 82.679688 19.144531 82.8125 19.171875 C 87.855469 20.015625 92.890625 19.972656 97.917969 19.050781 C 102.8125 17.988281 107.332031 14.007812 112.484375 16.671875 C 112.570312 16.699219 112.636719 16.675781 112.691406 16.605469 C 112.746094 16.535156 112.75 16.460938 112.699219 16.386719 Z M 112.699219 16.386719 " fill-opacity="1" fill-rule="nonzero"/><path fill="#000000" d="M 121.535156 13.457031 L 121.226562 13.457031 C 121.039062 13.457031 121.039062 13.75 121.226562 13.75 L 121.511719 13.75 C 121.609375 13.761719 121.664062 13.714844 121.671875 13.617188 C 121.679688 13.519531 121.636719 13.464844 121.535156 13.457031 Z M 121.535156 13.457031 " fill-opacity="1" fill-rule="nonzero"/><g fill="#000000" fill-opacity="1"><g transform="translate(31.058348, 28.418047)"><g><path d="M 2.296875 -1.28125 L 5.6875 -1.28125 L 5.6875 0 L 0.6875 0 L 0.6875 -7.75 L 2.296875 -7.75 Z M 2.296875 -1.28125 "/></g></g></g><g fill="#000000" fill-opacity="1"><g transform="translate(39.185967, 28.418047)"><g><path d="M 5.359375 -3.359375 L 2.296875 -3.359375 L 2.296875 -1.28125 L 5.890625 -1.28125 L 5.890625 0 L 0.6875 0 L 0.6875 -7.75 L 5.875 -7.75 L 5.875 -6.453125 L 2.296875 -6.453125 L 2.296875 -4.609375 L 5.359375 -4.609375 Z M 5.359375 -3.359375 "/></g></g></g><g fill="#000000" fill-opacity="1"><g transform="translate(47.542411, 28.418047)"><g><path d="M 5.0625 -1.59375 L 2.265625 -1.59375 L 1.734375 0 L 0.03125 0 L 2.921875 -7.75 L 4.40625 -7.75 L 7.3125 0 L 5.609375 0 Z M 2.703125 -2.890625 L 4.640625 -2.890625 L 3.65625 -5.796875 Z M 2.703125 -2.890625 "/></g></g></g><g fill="#000000" fill-opacity="1"><g transform="translate(57.101514, 28.418047)"><g><path d="M 3.5625 -1.921875 L 5.3125 -7.75 L 7.09375 -7.75 L 4.390625 0 L 2.734375 0 L 0.03125 -7.75 L 1.8125 -7.75 Z M 3.5625 -1.921875 "/></g></g></g><g fill="#000000" fill-opacity="1"><g transform="translate(66.453079, 28.418047)"><g><path d="M 5.359375 -3.359375 L 2.296875 -3.359375 L 2.296875 -1.28125 L 5.890625 -1.28125 L 5.890625 0 L 0.6875 0 L 0.6875 -7.75 L 5.875 -7.75 L 5.875 -6.453125 L 2.296875 -6.453125 L 2.296875 -4.609375 L 5.359375 -4.609375 Z M 5.359375 -3.359375 "/></g></g></g><g fill="#000000" fill-opacity="1"><g transform="translate(74.809522, 28.418047)"><g/></g></g><g fill="#000000" fill-opacity="1"><g transform="translate(79.749562, 28.418047)"><g><path d="M 6.734375 -2.234375 L 7.78125 -7.75 L 9.375 -7.75 L 7.640625 0 L 6.03125 0 L 4.78125 -5.1875 L 3.515625 0 L 1.90625 0 L 0.1875 -7.75 L 1.78125 -7.75 L 2.828125 -2.25 L 4.109375 -7.75 L 5.453125 -7.75 Z M 6.734375 -2.234375 "/></g></g></g><g fill="#000000" fill-opacity="1"><g transform="translate(91.506448, 28.418047)"><g><path d="M 7.0625 -3.703125 C 7.0625 -2.941406 6.925781 -2.269531 6.65625 -1.6875 C 6.382812 -1.113281 6 -0.671875 5.5 -0.359375 C 5 -0.046875 4.421875 0.109375 3.765625 0.109375 C 3.128906 0.109375 2.554688 -0.0390625 2.046875 -0.34375 C 1.546875 -0.65625 1.15625 -1.097656 0.875 -1.671875 C 0.601562 -2.253906 0.460938 -2.914062 0.453125 -3.65625 L 0.453125 -4.046875 C 0.453125 -4.804688 0.585938 -5.472656 0.859375 -6.046875 C 1.140625 -6.628906 1.53125 -7.078125 2.03125 -7.390625 C 2.539062 -7.703125 3.117188 -7.859375 3.765625 -7.859375 C 4.410156 -7.859375 4.984375 -7.703125 5.484375 -7.390625 C 5.984375 -7.078125 6.367188 -6.628906 6.640625 -6.046875 C 6.921875 -5.472656 7.0625 -4.804688 7.0625 -4.046875 Z M 5.4375 -4.046875 C 5.4375 -4.859375 5.289062 -5.476562 5 -5.90625 C 4.707031 -6.332031 4.296875 -6.546875 3.765625 -6.546875 C 3.222656 -6.546875 2.804688 -6.332031 2.515625 -5.90625 C 2.222656 -5.488281 2.078125 -4.878906 2.078125 -4.078125 L 2.078125 -3.703125 C 2.078125 -2.910156 2.222656 -2.296875 2.515625 -1.859375 C 2.804688 -1.421875 3.222656 -1.203125 3.765625 -1.203125 C 4.304688 -1.203125 4.71875 -1.410156 5 -1.828125 C 5.289062 -2.253906 5.4375 -2.867188 5.4375 -3.671875 Z M 5.4375 -4.046875 "/></g></g></g><g fill="#000000" fill-opacity="1"><g transform="translate(101.257123, 28.418047)"><g><path d="M 3.5625 -2.84375 L 2.296875 -2.84375 L 2.296875 0 L 0.6875 0 L 0.6875 -7.75 L 3.578125 -7.75 C 4.492188 -7.75 5.195312 -7.546875 5.6875 -7.140625 C 6.1875 -6.734375 6.4375 -6.15625 6.4375 -5.40625 C 6.4375 -4.875 6.320312 -4.429688 6.09375 -4.078125 C 5.863281 -3.734375 5.515625 -3.457031 5.046875 -3.25 L 6.734375 -0.078125 L 6.734375 0 L 5.015625 0 Z M 2.296875 -4.125 L 3.578125 -4.125 C 3.984375 -4.125 4.296875 -4.226562 4.515625 -4.4375 C 4.734375 -4.644531 4.84375 -4.925781 4.84375 -5.28125 C 4.84375 -5.644531 4.738281 -5.929688 4.53125 -6.140625 C 4.320312 -6.347656 4.003906 -6.453125 3.578125 -6.453125 L 2.296875 -6.453125 Z M 2.296875 -4.125 "/></g></g></g><g fill="#000000" fill-opacity="1"><g transform="translate(110.438397, 28.418047)"><g><path d="M 3.125 -3.109375 L 2.296875 -2.21875 L 2.296875 0 L 0.6875 0 L 0.6875 -7.75 L 2.296875 -7.75 L 2.296875 -4.234375 L 3 -5.203125 L 4.96875 -7.75 L 6.9375 -7.75 L 4.1875 -4.3125 L 7.015625 0 L 5.109375 0 Z M 3.125 -3.109375 "/></g></g></g><g fill="#000000" fill-opacity="1"><g transform="translate(54.2708, 36.328506)"><g><path d="M 5.1875 0.09375 L 4.375 -0.75 C 3.875 -0.21875 3.210938 0.046875 2.390625 0.046875 C 2.015625 0.046875 1.675781 -0.015625 1.375 -0.140625 C 1.070312 -0.265625 0.832031 -0.441406 0.65625 -0.671875 C 0.488281 -0.898438 0.40625 -1.160156 0.40625 -1.453125 C 0.40625 -1.804688 0.519531 -2.125 0.75 -2.40625 C 0.976562 -2.6875 1.359375 -2.984375 1.890625 -3.296875 C 1.609375 -3.585938 1.414062 -3.832031 1.3125 -4.03125 C 1.207031 -4.238281 1.15625 -4.457031 1.15625 -4.6875 C 1.15625 -5.0625 1.289062 -5.363281 1.5625 -5.59375 C 1.832031 -5.832031 2.195312 -5.953125 2.65625 -5.953125 C 3.070312 -5.953125 3.40625 -5.847656 3.65625 -5.640625 C 3.90625 -5.429688 4.03125 -5.144531 4.03125 -4.78125 C 4.03125 -4.488281 3.929688 -4.222656 3.734375 -3.984375 C 3.535156 -3.753906 3.191406 -3.5 2.703125 -3.21875 L 4.328125 -1.546875 C 4.503906 -1.867188 4.632812 -2.25 4.71875 -2.6875 L 5.21875 -2.53125 C 5.101562 -2 4.925781 -1.546875 4.6875 -1.171875 L 5.53125 -0.296875 Z M 2.65625 -5.5 C 2.351562 -5.5 2.117188 -5.425781 1.953125 -5.28125 C 1.796875 -5.132812 1.71875 -4.941406 1.71875 -4.703125 C 1.71875 -4.523438 1.757812 -4.359375 1.84375 -4.203125 C 1.9375 -4.046875 2.113281 -3.832031 2.375 -3.5625 C 2.800781 -3.8125 3.097656 -4.019531 3.265625 -4.1875 C 3.429688 -4.363281 3.515625 -4.554688 3.515625 -4.765625 C 3.515625 -4.992188 3.4375 -5.171875 3.28125 -5.296875 C 3.125 -5.429688 2.914062 -5.5 2.65625 -5.5 Z M 2.4375 -0.453125 C 3.082031 -0.453125 3.609375 -0.671875 4.015625 -1.109375 L 2.234375 -2.9375 C 1.765625 -2.675781 1.441406 -2.4375 1.265625 -2.21875 C 1.085938 -2.007812 1 -1.773438 1 -1.515625 C 1 -1.191406 1.128906 -0.929688 1.390625 -0.734375 C 1.648438 -0.546875 2 -0.453125 2.4375 -0.453125 Z M 2.4375 -0.453125 "/></g></g></g><g fill="#000000" fill-opacity="1"><g transform="translate(60.910205, 36.328506)"><g/></g></g><g fill="#000000" fill-opacity="1"><g transform="translate(64.116016, 36.328506)"><g><path d="M 5.890625 -5.90625 L 5.890625 0 L 5.390625 0 L 1.59375 -4.796875 L 1.59375 0 L 0.96875 0 L 0.96875 -5.90625 L 1.46875 -5.90625 L 5.28125 -1.109375 L 5.28125 -5.90625 Z M 5.890625 -5.90625 "/></g></g></g><g fill="#000000" fill-opacity="1"><g transform="translate(71.970255, 36.328506)"><g><path d="M 5.140625 -0.546875 L 5.140625 0 L 0.96875 0 L 0.96875 -5.90625 L 5.015625 -5.90625 L 5.015625 -5.359375 L 1.59375 -5.359375 L 1.59375 -3.265625 L 4.640625 -3.265625 L 4.640625 -2.734375 L 1.59375 -2.734375 L 1.59375 -0.546875 Z M 5.140625 -0.546875 "/></g></g></g><g fill="#000000" fill-opacity="1"><g transform="translate(78.609659, 36.328506)"><g><path d="M 9.0625 -5.90625 L 7.078125 0 L 6.421875 0 L 4.6875 -5.03125 L 2.953125 0 L 2.296875 0 L 0.3125 -5.90625 L 0.953125 -5.90625 L 2.65625 -0.828125 L 4.421875 -5.90625 L 5 -5.90625 L 6.734375 -0.796875 L 8.46875 -5.90625 Z M 9.0625 -5.90625 "/></g></g></g><g fill="#000000" fill-opacity="1"><g transform="translate(88.977927, 36.328506)"><g><path d="M 2.59375 0.046875 C 2.15625 0.046875 1.734375 -0.0195312 1.328125 -0.15625 C 0.921875 -0.300781 0.609375 -0.488281 0.390625 -0.71875 L 0.640625 -1.203125 C 0.859375 -0.984375 1.144531 -0.804688 1.5 -0.671875 C 1.851562 -0.546875 2.21875 -0.484375 2.59375 -0.484375 C 3.125 -0.484375 3.519531 -0.578125 3.78125 -0.765625 C 4.039062 -0.960938 4.171875 -1.21875 4.171875 -1.53125 C 4.171875 -1.757812 4.097656 -1.941406 3.953125 -2.078125 C 3.816406 -2.222656 3.644531 -2.332031 3.4375 -2.40625 C 3.226562 -2.488281 2.9375 -2.578125 2.5625 -2.671875 C 2.113281 -2.773438 1.757812 -2.878906 1.5 -2.984375 C 1.238281 -3.085938 1.015625 -3.242188 0.828125 -3.453125 C 0.640625 -3.671875 0.546875 -3.96875 0.546875 -4.34375 C 0.546875 -4.632812 0.625 -4.898438 0.78125 -5.140625 C 0.9375 -5.390625 1.175781 -5.585938 1.5 -5.734375 C 1.820312 -5.878906 2.226562 -5.953125 2.71875 -5.953125 C 3.050781 -5.953125 3.378906 -5.90625 3.703125 -5.8125 C 4.023438 -5.71875 4.304688 -5.59375 4.546875 -5.4375 L 4.34375 -4.9375 C 4.09375 -5.101562 3.828125 -5.222656 3.546875 -5.296875 C 3.265625 -5.378906 2.988281 -5.421875 2.71875 -5.421875 C 2.195312 -5.421875 1.804688 -5.320312 1.546875 -5.125 C 1.285156 -4.925781 1.15625 -4.671875 1.15625 -4.359375 C 1.15625 -4.117188 1.226562 -3.925781 1.375 -3.78125 C 1.519531 -3.632812 1.695312 -3.523438 1.90625 -3.453125 C 2.125 -3.378906 2.414062 -3.296875 2.78125 -3.203125 C 3.21875 -3.097656 3.566406 -2.992188 3.828125 -2.890625 C 4.097656 -2.785156 4.328125 -2.625 4.515625 -2.40625 C 4.703125 -2.195312 4.796875 -1.914062 4.796875 -1.5625 C 4.796875 -1.257812 4.710938 -0.984375 4.546875 -0.734375 C 4.390625 -0.492188 4.144531 -0.300781 3.8125 -0.15625 C 3.476562 -0.0195312 3.070312 0.046875 2.59375 0.046875 Z M 2.59375 0.046875 "/></g></g></g></svg>